Patient4_TMGait_0pt4_02_right_34_EMG.mot
version=1
nRows=30
nColumns=33
inDegrees=no
endheader
time	1LAddLong	2LGlutMax	3LGlutMed	4LIliopsoas	5LSemiMemb	6LBicFemLong	7LRecFem	8LVastMed	9LVastLat	10LGasMed	11LTibAnt	12lTibPost	13LPeroneusLong	14LSol	15LExtDigLong	16LFlexDigLong	17RAddLong	18RGlutMax	19RGlutMed	20RIliopsoas	21RSemiMemb	22RBicFemLong	23RRecFem	24RVastMed	25RVastLat	26RGasMed	27RTibAnt	28RTibPost	29RPeroneusLong	30RSol	31RExtDigLong	32RFlexDigLong
45.292	0.002136	-0.019073	-0.087738	-0.007019	-0.000153	-0.076447	0.15442	0.020142	0.14511	0.077972	0.034637	-0.010529	0.017548	0.25345	-0.17212	0.022125	-0.084534	-1.3516	-0.6517	0.073395	0.39246	-0.24323	0.42954	-0.14511	0.10559	0.014648	0.1387	0.045013	-1.4511	-0.12909	-0.000916	-0.02121
45.293	0.021362	-0.00412	-0.10223	0.006409	-0.004272	-0.064697	0.1976	0.010071	0.13916	0.093689	0.14603	-0.012665	-0.039673	0.28351	0.067596	0.003967	-0.082703	-1.2978	-0.12253	-0.092621	0.29984	-0.26138	0.42648	-0.11414	0.15686	0.007629	0.15625	-0.056	0.66361	-0.80063	-0.00412	-0.014801
45.294	-0.027161	0.001221	-0.14099	0.039825	0.01297	-0.069885	0.27603	0.01297	0.12863	0.086823	0.013123	-0.010834	-0.012207	0.28946	-0.058899	0.001984	-0.012817	-1.3113	-0.5455	-0.042419	0.006104	-0.31647	0.44037	-0.051575	0.1648	-0.00946	0.30197	0.011292	1.1816	-1.2903	-0.005188	-0.01709
45.295	-0.05249	0.027313	-0.15442	0.047913	-0.000916	-0.058289	0.33844	0.01236	0.14282	-0.066833	0.093384	-0.004578	0.080566	0.26489	-0.74173	-0.005493	0.025635	-1.261	-0.87021	0.10422	-0.043488	-0.29129	0.46081	-0.035858	0.1445	0.024719	0.052948	-0.000763	0.90973	-0.78735	0.000153	-0.010529
45.296	-0.018005	0.07431	-0.16266	0.006561	-0.00351	-0.049286	0.38086	0.01358	0.14633	-0.17212	0.26901	0	0.093536	0.1886	-0.32257	-0.005951	0.001678	-1.1423	-0.24918	0.040894	-0.071106	-0.089874	0.56808	-0.056915	0.13626	0.031891	-0.23575	-0.018158	-0.034027	-0.052643	-0.002899	-0.003357
45.297	-0.010071	0.059357	-0.20035	-0.012665	-0.001831	-0.046234	0.25818	0.013428	0.17258	-0.088806	0.40558	-0.002136	-0.013885	0.069275	0.025635	0.006104	-0.1088	-1.1713	0.57434	-0.000153	0.053711	-0.045013	0.53146	0.051422	0.073853	0.018311	-0.21042	-0.016327	-0.37643	0.56229	-0.003662	-0.005341
45.298	-0.001831	0.064392	-0.22369	-0.00412	-0.000153	-0.045319	0.1004	0.013123	0.19684	-0.0737	-0.088043	-0.014801	0.036163	-0.00473	0.091705	0.005798	-0.098877	-1.2813	0.27664	-0.071564	0.027313	-0.12314	0.5191	0.036163	-0.19501	0.063477	0.024414	-0.013885	-0.67688	0.57907	-0.005646	-0.00824
45.299	-0.011139	0.040741	-0.27084	-0.009155	-0.005188	-0.045319	-0.087585	0.018921	0.20508	-0.04303	-0.33493	-0.000916	0.004425	-0.038757	0.15518	0.005493	-0.024414	-1.3896	-0.46051	-0.24384	0.069885	-0.14389	0.61905	-0.074158	-0.58456	0.054169	0.060577	0.048981	-0.33447	0.31128	-0.004578	-0.001678
45.3	-0.012817	0.055389	-0.2829	-0.004272	-0.014038	-0.034332	-0.047302	0.023041	0.20264	-0.047607	-0.30304	-0.012054	0.004578	-0.023651	-0.25635	-0.000916	0.01297	-1.3907	-0.46753	-0.26215	0.11856	-0.1442	0.6134	-0.066376	-0.50659	0.03891	0.079651	0.002289	-0.65872	0.25955	-0.007019	-0.007477
45.301	-0.018005	0.046997	-0.26245	-0.00946	-0.003967	-0.045929	-0.012665	0.029907	0.21149	-0.042419	-0.22659	-0.004425	0.014801	0.050354	-0.17441	0.002594	-0.007629	-1.3037	-0.056915	-0.1471	0.18234	-0.21759	0.31799	0.27908	-0.25406	-0.006256	0.088043	0.018311	-0.33524	0.17761	-0.000153	-0.011597
45.302	-0.003357	0.059052	-0.23758	0.005493	-0.003662	-0.023804	0.001373	0.019073	0.20767	-0.036316	-0.1413	-0.001068	0.017242	0.023193	-0.39825	-0.002747	-0.037231	-1.1798	0.06134	0.10056	-0.036316	-0.24689	0.00473	0.14526	-0.081177	-0.058441	-0.020142	-0.028229	0.12573	-0.16357	-0.012512	-0.009308
45.303	0.001068	0.070343	-0.19959	0.015869	-0.002594	-0.028992	-0.035248	0.020447	0.21652	0.000458	-0.15015	-0.007629	0.015869	-0.069275	-0.44571	-0.019836	-0.064392	-1.1295	-0.38406	0.26855	-0.15808	-0.15457	-0.19455	0.16586	0.059814	-0.024261	-0.061035	-0.22736	0.45822	-0.021973	-0.00473	-0.009766
45.304	-0.003815	0.054779	-0.17288	-0.002136	-0.00946	-0.022888	-0.026245	0.01709	0.20721	0.007629	-0.18158	-0.006409	0.017853	-0.1857	-0.22949	-0.025635	-0.050201	-1.1044	-0.60684	0.23071	-0.015717	-0.017548	-0.10391	0.11734	0.13657	-0.017242	-0.06073	0.02655	0.38513	0.53863	-0.008392	-0.006409
45.305	-0.005493	0.06012	-0.16129	0.005188	-0.003815	-0.015869	0.017548	-0.001984	0.19318	-0.016479	-0.2298	0.000763	0.016022	-0.11047	-0.12711	-0.018311	-0.02182	-1.0477	-0.10346	0.19012	-0.076904	0.080872	-0.001526	0.15289	0.066986	-0.032959	0.058136	0.074005	2.0807	0.50491	-0.005951	-0.002441
45.306	0.002747	0.056	-0.1355	-0.000305	-0.008545	-0.017242	0.046234	-0.003204	0.21683	-0.020599	-0.22766	-0.005493	0.013275	-0.046997	-0.022888	-0.011597	-0.000305	-1.0666	-0.11231	0.23544	-0.13092	0.11368	0.029144	0.06073	0.032043	-0.0383	0.21942	0.030365	3.0748	0.58731	-0.003967	-0.007477
45.307	0.010529	0.057373	-0.12085	0.01358	-0.002289	-0.002594	0.084229	0.007324	0.23453	-0.019531	-0.13733	-0.001678	-0.008545	-0.071411	-0.14969	-0.011444	0.016327	-1.001	-0.13336	0.17609	-0.024109	-0.032501	0.007019	-0.024261	0.066071	0.00412	0.23041	0.03891	0.77805	0.019989	-0.003815	-0.004883
45.308	0.010376	0.06958	-0.084076	0.023956	-0.01236	-0.023346	0.021057	0.009766	0.25085	-0.012817	-0.085754	-0.001526	-0.06134	-0.10025	0.050659	-0.021057	0.03067	-0.96344	-0.87524	0.09491	0.02655	-0.018616	0.05188	-0.057068	0.058289	0.025024	0.10681	0.018311	-2.7176	-0.11017	-0.005188	-0.001221
45.309	0.00824	0.077667	-0.081177	0.053253	-0.007935	-0.005035	-0.14328	0.023499	0.26962	-0.010681	0.012207	-0.002747	-0.036621	-0.081482	0.22964	-0.002136	0.004578	-0.71259	-0.97122	0.032349	0.083008	0.000458	0.10559	-0.02243	0.07309	0.032501	-0.014038	-0.005951	-3.0493	-0.27542	-0.005341	0.00351
45.31	0.011444	0.085754	-0.057983	0.036621	-0.005798	-0.016479	-0.18967	0.00885	0.26047	-0.001221	-0.009918	-0.003204	-0.020142	-0.067444	0.31296	-0.010376	0.023193	-0.52322	-0.39139	0.050049	-0.030212	-0.02533	0.17761	0.006714	0.026398	0.032349	-0.19134	-0.018463	1.7973	-0.37064	0.002136	0.006104
45.311	0.023651	0.0354	-0.050659	0.004425	-0.010529	-0.020447	-0.20157	0.015717	0.27176	0.005798	-0.013123	-0.004272	-0.049133	-0.02243	0.23972	-0.014191	0.056763	-0.39597	0.14404	-0.10681	-0.27191	-0.084076	0.19989	-0.033112	0.010529	0.007477	-0.083008	0.018768	0.15564	-0.10574	-0.006561	-0.000458
45.312	0.00885	0.014648	-0.061493	0.002441	-0.010986	-0.026245	-0.062714	0.008087	0.25497	0.005646	-0.0177	-0.013275	-0.066833	0.021973	0.15121	-0.007629	0.067902	-0.35843	0.53009	-0.21851	-0.58884	-0.083618	0.16953	-0.10559	0.037079	-0.000763	0.062103	0.022888	-1.3057	-0.076447	-0.001678	0.002136
45.313	0.008698	-0.006256	-0.053253	0.018463	-0.004578	-0.024872	0.018463	0.002899	0.26321	0.001831	0.000763	0.000458	-0.061646	0.039673	0.14954	-0.018616	0.045471	-0.25833	0.78171	-0.11887	-0.82245	-0.083618	0.028381	-0.12405	0.046539	-0.013428	-0.007629	0.019836	-0.38727	-0.007172	-0.003967	0.005341
45.314	0.002747	-0.053711	-0.046692	0.026703	-0.005798	-0.00824	0.023499	0.005341	0.24735	0.000153	0.044708	-0.004425	-0.04837	-0.060425	0.11322	-0.01297	0.014343	-0.21164	-0.56961	-0.064545	-0.62241	0.048676	-0.14938	-0.16495	0.053253	-0.00824	-0.095978	0.000763	1.0518	-0.09903	-0.002441	0.013885
45.315	-0.012665	-0.050354	-0.062408	0.019531	0.005341	-0.026703	0.007019	-0.00473	0.25238	-0.00885	0.071411	-0.000305	-0.029297	-0.044403	0.077972	-0.003204	-0.059357	-0.075531	-0.77286	-0.006104	-0.14847	0.19196	-0.38589	-0.014343	0.052185	-0.011292	-0.070953	-0.004578	0.71274	0.005798	-0.003815	0.007172
45.316	-0.010223	-0.081787	-0.089417	0.005035	-0.005798	-0.022736	0.00412	0.008545	0.2298	0.014648	0.071869	-0.000916	-0.050507	0.002441	0.10147	-0.016174	-0.082397	0.038147	-0.85632	0.099182	0.30518	0.11704	-0.40451	0.13748	0.080109	-0.014038	-0.009766	-0.01358	-0.58487	-0.053101	-0.00412	0.017853
45.317	-0.013275	-0.14191	-0.11322	0.000458	-0.006866	-0.019226	0.10407	0.008545	0.22903	0.025635	0.031281	-0.001068	-0.051117	0.053711	0.14114	-0.012512	-0.069733	0.079193	-0.91904	0.20233	0.51819	0.13855	-0.31632	0.29083	0.098877	-0.000763	0.012054	-0.007629	-0.69244	-0.08606	-0.003357	0.01236
45.318	-0.007935	-0.16113	-0.14252	0.003662	-0.005951	-0.030518	0.17136	0.01358	0.21057	0.016479	0.068665	-0.005646	-0.080566	0.054626	0.084991	-0.014038	-0.04837	0.098114	0.3093	-0.015564	0.48904	0.07019	-0.24887	0.25711	0.14923	-0.011444	0.012817	-0.012512	-0.13458	-0.033112	-0.002747	0.019073
45.319	-0.001068	-0.2153	-0.16403	-0.005798	-0.002441	-0.032196	0.17212	0.012817	0.17364	0.01297	0.11215	-0.00351	-0.08316	0.038147	0.29068	-0.002899	-0.011444	0.1535	0.68329	-0.041351	0.20401	0.005035	-0.088959	0.21698	0.15533	-0.011444	0.071716	-0.013428	0.58258	-0.016022	-0.004578	0.011597
45.32	0.000153	-0.24262	-0.16998	-0.000305	-0.006866	-0.032043	0.14328	0.027466	0.15442	-0.005493	-0.1445	-0.009918	-0.025024	0.031281	0.088806	0.006104	-0.0177	0.23163	0.41061	0.016479	-0.021667	-0.037537	-0.068817	0.13443	0.091858	0.009613	0.072784	-0.009308	0.56808	-0.077972	-0.004425	0.013885
45.321	-0.000916	-0.26855	-0.16159	-0.011749	-0.001526	-0.021362	0.15274	0.019073	0.11688	-0.034485	-0.075073	-0.00473	0.078583	0.069427	0.57114	0.00412	-0.010681	0.32501	-0.10864	0.11551	-0.047302	-0.065613	0.005951	-0.016785	0.053253	0.032501	0.073853	-0.001526	0.25345	-0.096893	-0.010223	0.007019
